<svg width="1254" height="1254" viewBox="0 0 1254 1254" fill="none" xmlns="http://www.w3.org/2000/svg">
<style>
  /* Whole mascot: gentle sway + bob */
  #Loading {
    transform-box: fill-box;
    transform-origin: center;
    animation: mascot-sway 3.4s ease-in-out infinite;
  }

  /* Eyes: natural blink */
  #eye-left,
  #eye-right {
    transform-box: fill-box;
    transform-origin: center;
    animation: mascot-blink 4.8s ease-in-out infinite;
  }

  #eye-right {
    animation-delay: 0.04s;
  }

  /* Pupils: tiny look movement to avoid feeling static */
  #pupil,
  #pupil_2 {
    transform-box: fill-box;
    transform-origin: center;
    animation: mascot-look 5.8s ease-in-out infinite;
  }

  @keyframes mascot-sway {
    0%,
    100% {
      transform: translateY(0px) rotate(0deg);
    }

    25% {
      transform: translateY(-6px) rotate(-1.2deg);
    }

    50% {
      transform: translateY(-10px) rotate(0.9deg);
    }

    75% {
      transform: translateY(-4px) rotate(-0.6deg);
    }
  }

  @keyframes mascot-blink {
    0%,
    41%,
    43%,
    72%,
    74%,
    100% {
      transform: scaleY(1);
    }

    42% {
      transform: scaleY(0.08);
    }

    73% {
      transform: scaleY(0.18);
    }
  }

  @keyframes mascot-look {
    0%,
    18%,
    100% {
      transform: translate(0, 0);
    }

    30%,
    42% {
      transform: translate(2px, 1px);
    }

    58%,
    68% {
      transform: translate(-1.5px, 0);
    }
  }

  @media (prefers-reduced-motion: reduce) {
    #Loading,
    #eye-left,
    #eye-right,
    #pupil,
    #pupil_2 {
      animation: none !important;
    }
  }
</style>
<g id="Loading">
<path id="body" d="M572.778 401.254C577.304 386.111 581.148 376.06 589.327 362.247C614.038 320.72 654.241 290.716 701.083 278.836C787.791 256.586 870.55 301.847 893.126 389.474C901.857 423.358 900.363 458.258 886.636 490.615C883.109 498.936 878.412 506.677 873.765 514.398C878.602 514.959 883.354 515.567 888.136 516.562C964.411 532.446 1015.28 612.966 999.643 688.5C991.119 728.667 967.092 763.856 932.779 786.414C903.039 806.026 869.362 815.804 833.818 816C823.25 816.061 814.629 815.939 804.201 813.814C812.155 828.65 818.768 844.16 823.966 860.172C838.429 860.968 849.028 865.885 857.618 877.892C865.113 888.368 867.452 901.08 865.082 913.693C855.426 965.035 785.985 995.858 738.611 986.594C726.414 984.182 715.019 978.738 705.479 970.766C675.813 946.476 656.58 899.867 642.277 865.162C640.011 859.67 632.615 834.804 630.417 831.975C620.35 870.673 601.381 903.443 571.63 930.605C563.898 937.665 557.684 941.553 549.821 947.639C554.089 954.73 556.483 961.618 554.253 969.903C549.692 985.927 532.145 987.672 518.274 988.021C499.77 988.48 482.341 987.543 464.623 981.947C418.68 967.435 400.218 929.564 426.565 887.217C425.153 886.329 416.334 883.415 414.071 882.453C356.923 858.267 337.2 794.974 364.174 740.203C375.44 717.327 387.884 701.775 407.786 684.416C380.805 680.234 349.653 663.481 330.73 644.053C266.128 577.737 281.582 475.166 343.349 413.867C377.926 380.059 424.363 361.128 472.721 361.124C509.561 361.322 546.636 374.875 572.778 401.254Z" fill="#1F98F4"/>
<path id="cheek-right" d="M865.646 583.975C879.968 581.118 893.91 590.385 896.812 604.7C899.721 619.016 890.493 632.982 876.19 635.934C861.819 638.897 847.773 629.627 844.852 615.244C841.937 600.863 851.257 586.847 865.646 583.975Z" fill="#FDA37D"/>
<path id="cheek-left" d="M585.05 661.02C599.345 658.693 612.856 668.288 615.366 682.554C617.877 696.821 608.448 710.451 594.215 713.139C584.848 714.903 575.255 711.498 569.102 704.218C562.947 696.944 561.185 686.914 564.486 677.974C567.787 669.029 575.642 662.557 585.05 661.02Z" fill="#FDA37D"/>
<path id="mouth" d="M772.373 631.954C805.934 631.194 766.183 710.035 712.123 673.554C708.651 670.743 704.273 667.241 702.914 662.808C701.034 656.715 703.979 650.286 710.261 648.431C719.636 645.669 724.424 655.282 731.778 658.754C737.356 661.387 743.381 660.554 749.008 658.528C759.846 654.811 760.421 646.839 764.536 637.893C766.189 634.286 768.84 633.209 772.373 631.954Z" fill="#18161B"/>
<g id="legs">
<path id="leg-left" d="M426.565 887.217C428.585 887.327 434.381 888.895 436.598 889.434C443.242 891.038 449.703 892.459 456.553 893.004C504.289 896.598 551.883 884.394 592.001 858.274C599.493 853.43 606.724 848.189 613.664 842.58C616.903 839.984 627.643 829.844 629.639 828.987L630.429 829.759L630.417 831.975C620.35 870.673 601.381 903.443 571.63 930.605C563.898 937.665 557.684 941.553 549.821 947.639C554.089 954.73 556.483 961.618 554.253 969.903C549.692 985.927 532.145 987.672 518.274 988.021C499.77 988.48 482.341 987.543 464.623 981.947C418.68 967.435 400.218 929.564 426.565 887.217Z" fill="#126FC0"/>
</g>
<g id="eyes">
<g id="eye-left">
<path id="white" d="M698.236 628.316C697.733 638.756 685.953 652.135 676.909 656.966C667.761 661.895 657.003 662.887 647.114 659.697C609.045 647.702 591.157 584.897 603.21 550.21C611.02 527.733 627.025 515.218 651.045 523.479C659.054 526.233 672.929 535.401 676.407 542.798C697.733 561.851 709.324 601.28 698.236 628.316Z" fill="#F6F6F6"/>
<path id="pupil" d="M698.236 628.316C691.531 638.26 681.563 641.236 670.792 635.523C656.464 627.508 649.135 613.56 643.673 598.097C637.544 580.737 634.568 545.727 657.242 538.245C663.285 536.25 670.951 539.413 676.407 542.798C697.733 561.851 709.324 601.28 698.236 628.316Z" fill="#18161B"/>
</g>
<g id="eye-right">
<path id="white_2" d="M825.007 593.928C824.664 597.431 822.638 601.586 820.984 604.683C810.881 623.577 788.949 630.533 769.924 619.622C750.967 608.755 738.482 585.179 732.849 564.69C727.547 543.78 726.481 519.874 737.368 500.64C751.004 476.554 777.909 479.379 795.653 496.155C798.47 498.815 804.042 504.264 805.003 507.969C825.221 526.814 836.145 568.071 825.007 593.928Z" fill="#F6F6F6"/>
<path id="pupil_2" d="M825.007 593.928C818.211 602.815 808.891 606.155 798.513 600.623C784.068 592.43 776.408 576.969 771.351 561.395C765.748 544.139 762.674 510.094 785.293 502.996C791.955 500.904 799.205 504.355 805.003 507.969C825.221 526.814 836.145 568.071 825.007 593.928Z" fill="#18161B"/>
</g>
</g>
</g>
</svg>
